<?xml version="1.0"?>
<svg
  height="35"
  width="35"
  viewBox="253 -5 85 85"
  fill="none"
  xmlns="http://www.w3.org/2000/svg"
>
  <defs>
    <linearGradient
      id="paint0_linear"
      x1="303.038"
      y1="0"
      x2="303.038"
      y2="74.4325"
      gradientUnits="userSpaceOnUse"
    >
      <stop stop-color="#1E90FF" />
      <stop offset="1" stop-color="#FF1E56" />
    </linearGradient>
    <linearGradient
      id="paint1_linear"
      x1="303.038"
      y1="0"
      x2="303.038"
      y2="74.4325"
      gradientUnits="userSpaceOnUse"
    >
      <stop stop-color="#1E90FF" />
      <stop offset="1" stop-color="#FF1E56" />
    </linearGradient>
    <linearGradient
      id="paint2_linear"
      x1="303.038"
      y1="0"
      x2="303.038"
      y2="74.4325"
      gradientUnits="userSpaceOnUse"
    >
      <stop stop-color="#1E90FF" />
      <stop offset="1" stop-color="#FF1E56" />
    </linearGradient>
    <linearGradient
      id="paint3_linear"
      x1="303.038"
      y1="0"
      x2="303.038"
      y2="74.4325"
      gradientUnits="userSpaceOnUse"
    >
      <stop stop-color="#1E90FF" />
      <stop offset="1" stop-color="#FF1E56" />
    </linearGradient>
    <linearGradient
      id="paint4_linear"
      x1="303.038"
      y1="0"
      x2="303.038"
      y2="74.4325"
      gradientUnits="userSpaceOnUse"
    >
      <stop stop-color="#1E90FF" />
      <stop offset="1" stop-color="#FF1E56" />
    </linearGradient>
    <linearGradient
      id="paint5_linear"
      x1="303.038"
      y1="0"
      x2="303.038"
      y2="74.4325"
      gradientUnits="userSpaceOnUse"
    >
      <stop stop-color="#1E90FF" />
      <stop offset="1" stop-color="#FF1E56" />
    </linearGradient>
  </defs>

  <path
    d="M284.91 37.396C284.91 38.956 285.205 40.3947 285.794 41.712C286.383 43.0293 287.181 44.1733 288.186 45.144C289.191 46.1147 290.353 46.8773 291.67 47.432C293.022 47.952 294.443 48.212 295.934 48.212C297.425 48.212 298.829 47.952 300.146 47.432C301.498 46.8773 302.677 46.1147 303.682 45.144C304.722 44.1733 305.537 43.0293 306.126 41.712C306.715 40.3947 307.01 38.956 307.01 37.396C307.01 35.836 306.715 34.3973 306.126 33.08C305.537 31.7627 304.722 30.6187 303.682 29.648C302.677 28.6773 301.498 27.932 300.146 27.412C298.829 26.8573 297.425 26.58 295.934 26.58C294.443 26.58 293.022 26.8573 291.67 27.412C290.353 27.932 289.191 28.6773 288.186 29.648C287.181 30.6187 286.383 31.7627 285.794 33.08C285.205 34.3973 284.91 35.836 284.91 37.396ZM274.25 37.396C274.25 34.484 274.787 31.78 275.862 29.284C276.937 26.7533 278.427 24.552 280.334 22.68C282.241 20.808 284.511 19.352 287.146 18.312C289.815 17.2373 292.745 16.7 295.934 16.7C299.089 16.7 302.001 17.2373 304.67 18.312C307.339 19.352 309.627 20.808 311.534 22.68C313.475 24.552 314.983 26.7533 316.058 29.284C317.133 31.78 317.67 34.484 317.67 37.396C317.67 40.308 317.133 43.0293 316.058 45.56C314.983 48.056 313.475 50.24 311.534 52.112C309.627 53.984 307.339 55.4573 304.67 56.532C302.001 57.572 299.089 58.092 295.934 58.092C292.745 58.092 289.815 57.572 287.146 56.532C284.511 55.4573 282.241 53.984 280.334 52.112C278.427 50.24 276.937 48.056 275.862 45.56C274.787 43.0293 274.25 40.308 274.25 37.396Z"
    fill="#000"
  />
  <path
    fill-rule="evenodd"
    clip-rule="evenodd"
    d="M297.282 0.0221394C288.721 -0.273052 280.161 2.38367 273.076 7.99231L277.799 10.649C283.408 6.51635 290.492 4.7452 297.282 5.04039V0.0221394Z"
    fill="url(#paint0_linear)"
  />
  <path
    fill-rule="evenodd"
    clip-rule="evenodd"
    d="M322.373 11.2394C316.469 5.04038 308.794 1.20289 300.529 0.317316V5.33557C307.614 6.51634 313.813 9.76344 318.831 14.7817L322.373 11.2394Z"
    fill="url(#paint1_linear)"
  />
  <path
    fill-rule="evenodd"
    clip-rule="evenodd"
    d="M333 35.4451C332.705 27.7701 329.753 20.0951 324.735 13.6009L321.192 17.1432C325.325 22.7519 327.687 28.9509 327.982 35.4451H333Z"
    fill="url(#paint2_linear)"
  />
  <path
    fill-rule="evenodd"
    clip-rule="evenodd"
    d="M324.735 60.8315C329.753 54.3373 332.705 46.6624 333 38.9874H327.982C327.687 45.4816 325.325 51.6806 321.192 57.2892L324.735 60.8315Z"
    fill="url(#paint3_linear)"
  />
  <path
    fill-rule="evenodd"
    clip-rule="evenodd"
    d="M300.529 74.1152C308.499 73.2296 316.469 69.3921 322.373 63.1931L318.831 59.6508C313.813 64.9642 307.318 68.2113 300.529 69.0969V74.1152Z"
    fill="url(#paint4_linear)"
  />
  <path
    fill-rule="evenodd"
    clip-rule="evenodd"
    d="M273.076 66.4402C280.161 72.0488 288.721 74.7055 297.282 74.4104V69.3921C290.492 69.6873 283.703 67.9161 277.799 63.7835L273.076 66.4402Z"
    fill="url(#paint5_linear)"
  />
</svg>
